<svg width="76" height="95" viewBox="0 0 76 95" fill="none" xmlns="http://www.w3.org/2000/svg">
<g id="credit-card">
<path id="Vector" fill-rule="evenodd" clip-rule="evenodd" d="M58.2999 45.8602H56.8599C56.8599 45.8602 56.8599 40.7552 54.3899 38.2452C51.9199 35.7352 47.5599 35.4202 47.5599 35.4202L47.7049 33.8752C47.7049 33.8752 52.9449 33.3202 54.6499 31.6002C56.9949 29.2302 56.7599 24.8602 56.7599 24.8602L58.2299 24.7352C58.2299 24.7352 58.4999 29.6152 60.4999 31.6452C62.4999 33.6752 67.7299 33.8602 67.7299 33.8602L67.7999 35.4852C67.7999 35.4852 63.3749 35.7702 60.8349 37.9352C58.7849 39.6952 58.2999 45.8602 58.2999 45.8602ZM52.4399 45.3152C52.5799 45.7852 52.7899 46.4902 53.0399 47.3452L17.7299 57.7302C17.5399 57.1452 17.3899 56.6652 17.2899 56.3452C16.5649 54.0302 17.2099 52.2352 19.2149 51.5202C21.2199 50.8052 44.2949 43.8002 46.9999 43.0002C49.7049 42.2002 51.5799 42.4052 52.4399 45.3152ZM39.7249 33.5002H38.8749C38.8749 33.5002 38.8749 30.5002 37.4199 29.0002C35.9649 27.5002 33.3899 27.3352 33.3899 27.3352L33.4999 26.4202C33.4999 26.4202 36.5899 26.0902 37.5949 25.0752C38.9799 23.6802 38.8399 21.1052 38.8399 21.1052L39.7049 21.0352C39.7049 21.0352 39.8949 23.8752 41.0899 25.0652C42.2849 26.2552 45.3149 26.4102 45.3149 26.4102L45.3599 27.3652C45.3599 27.3652 42.7499 27.5352 41.2499 28.8102C39.9999 29.8452 39.7249 33.5002 39.7249 33.5002ZM36.9649 36.0002L36.9999 36.9152C36.9999 36.9152 34.3899 37.0852 32.8899 38.3602C31.6749 39.3952 31.3899 43.0252 31.3899 43.0252H30.5499C30.5499 43.0252 30.5499 40.0252 29.0949 38.5252C27.6399 37.0252 25.0649 36.8552 25.0649 36.8552L25.1499 35.9502C25.1499 35.9502 28.2449 35.6202 29.2499 34.6052C30.6299 33.2302 30.4999 30.6552 30.4999 30.6552L31.3699 30.5852C31.3699 30.5852 31.4999 33.5002 32.6899 34.6652C33.8799 35.8302 36.9649 35.9602 36.9649 35.9602V36.0002ZM57.2199 61.6402C57.7649 63.4552 57.5449 65.5652 54.0499 66.3902C50.5549 67.2152 30.2199 73.2552 27.4999 73.8902C24.7799 74.5252 22.9199 74.4502 22.1049 71.5902C21.7799 70.4452 20.7899 67.3402 19.7799 64.1902L54.8449 53.5002C55.8999 57.1152 56.9399 60.6602 57.2199 61.6002V61.6402Z" fill="#171F37"/>
</g>
</svg>
