<svg width="116" height="28" viewBox="0 0 116 28" fill="none" xmlns="http://www.w3.org/2000/svg">
<path d="M52.2064 0.00949301H49.0884L46.9011 12.5885H50.4699L52.1824 2.73997H62.355C62.9031 2.73997 64.0543 2.81011 64.0543 3.77148C64.0543 5.09277 62.9606 5.09277 62.2699 5.09277H57.5512L57.2294 7.29831C57.2294 7.29831 61.4067 7.29806 61.8094 7.29831C63.3293 7.29907 63.8279 7.45745 63.7665 8.2388C63.7142 8.90439 63.4211 9.29685 62.5554 9.36723H52.7011L52.2543 12.5252C52.2543 12.5252 63.1836 12.571 63.5962 12.5124C65.8804 12.1881 67.1131 10.7336 67.1194 8.35561C67.1228 7.09327 66.6467 6.52908 65.3771 6.29104L64.9396 6.209L65.4011 6.09341C66.9785 5.69825 67.8445 4.46485 67.8531 2.6011C67.8609 0.921746 67.0149 0.186285 64.8957 0.0369715C64.0335 -0.0238077 52.5858 0.00840803 52.2064 0.00949301Z" fill="#E5E9EE"/>
<path d="M99.5695 12.5886L96.5981 9.5302C98.0957 9.48303 99.5888 8.65836 100.182 7.22667C100.815 5.69562 101.111 4.03851 101.049 2.37509C101.039 0.496297 99.3728 0.00952075 97.6028 0.00952075H70.5587L70.0646 2.99734H95.5098C96.9507 2.90871 97.1855 3.64048 97.1855 4.58097C97.1855 5.80514 96.7772 6.28147 95.511 6.41763C95.5134 6.41763 95.51 6.41774 93.5732 6.41669L92.3168 5.12343H87.2514L94.5041 12.5886H99.5695Z" fill="#E5E9EE"/>
<path d="M31.7737 0.117553L36.8522 7.05366L39.0264 4.34975L35.9312 0.117553H31.7737Z" fill="#E5E9EE"/>
<path d="M91.1797 27.2722H95.3017L97.1075 24.77H102.113L102.459 22.3219H98.8742L102.342 17.5166H105.172L103.495 27.2595H107.207C108.007 23.1505 108.683 18.9495 109.329 14.8127H100.041C100.041 14.8127 94.0435 23.2598 91.1797 27.2722Z" fill="#E5E9EE"/>
<path d="M60.047 22.6752C60.1781 21.8529 61.3629 14.8222 61.3629 14.8222H65.0828L65.0544 14.976C64.6532 16.9257 63.839 22.1688 63.8549 22.7003C63.8973 24.1155 64.3366 24.3993 66.6247 24.4903C69.3268 24.5978 70.5282 24.4241 71.1883 23.8309C71.7735 23.3048 71.9445 22.7956 72.3396 20.4019L73.1363 14.8222H88.6375C90.4075 14.8222 92.074 15.309 92.0831 17.1878C92.1457 18.8512 91.8498 20.5083 91.2165 22.0394C90.6235 23.4711 89.1303 24.2957 87.6328 24.3429L90.6041 27.4013H85.5387L78.286 19.9361H83.3514L84.6079 21.2294C86.5447 21.2304 86.548 21.2303 86.5456 21.2303C87.8118 21.0942 88.2202 20.6178 88.2202 19.3937C88.2202 18.4532 87.9853 17.7214 86.5445 17.81H76.4131L75.9673 20.8791C75.2189 25.2971 74.3333 26.6586 71.8203 27.2544C71.2027 27.4009 63.6651 27.4607 62.7715 27.3263C61.2404 27.0959 60.4113 26.454 60.0737 25.2374C59.9646 24.8441 59.9484 23.2933 60.047 22.6752Z" fill="#E5E9EE"/>
<path d="M5.5114 14.8703C2.99792 15.0498 1.8743 15.8494 1.30957 17.8608C0.776464 19.7593 1.04247 21.1462 2.05638 21.7551C2.85136 22.2325 3.272 22.279 7.18411 22.3232C10.9973 22.3663 11.1701 22.3845 11.6478 22.7959C12.0393 23.133 11.9239 23.8172 11.4385 24.0364C11.0462 24.2137 10.5856 24.2286 5.46014 24.2301L0.415356 24.2317L0.19328 25.742C0.0711233 26.5726 -0.0148734 27.2609 0.0021488 27.2717C0.084751 27.3238 11.6156 27.3021 12.03 27.2491C13.8767 27.0127 14.8352 26.1471 15.348 24.2527C16.0084 21.813 15.6139 20.4566 14.0797 19.8922C13.3056 19.6074 13.1408 19.5965 9.1028 19.5641C5.51662 19.5353 5.38172 19.5308 5.19482 19.4338C4.43771 19.0409 4.83641 18.1405 5.43761 17.8764C5.70158 17.7604 10.7009 17.8513 10.7009 17.8513L20.9145 17.8262L23.1426 14.8369L11.0584 14.8457C8.12934 14.8505 5.63317 14.8616 5.5114 14.8703Z" fill="#E5E9EE"/>
<path d="M113.014 27.0327C112.994 27.1358 112.963 27.2965 112.963 27.2965H109.251L111.394 14.8497L115.086 14.9143C115.086 14.9143 113.928 22.3201 113.014 27.0327Z" fill="#E5E9EE"/>
<path d="M36.9231 14.8369L34.5943 27.2964C34.5943 27.2964 38.2841 27.3514 38.2841 27.2964C38.2841 27.2964 40.0177 18.2226 40.0424 18.1971C40.0424 18.1976 47.249 26.5846 47.249 26.5846L55.7481 18.17L54.1896 27.2964H57.8794L59.9949 14.8369H54.6285L47.5736 21.4514L42.3067 14.8369H36.9231Z" fill="#E5E9EE"/>
<path d="M20.5874 27.2722H16.4655L25.3269 14.8127H34.6152C33.9686 18.9495 33.2927 23.1505 32.4927 27.2595H28.7805L30.4578 17.5166H27.628L24.16 22.3219H27.7444L27.3991 24.77H22.3932L20.5874 27.2722Z" fill="#E5E9EE"/>
<path d="M68.2559 12.5818C68.2563 12.5818 69.535 5.15339 69.535 5.15339H84.7488L84.3123 7.60148H72.9152L72.5314 9.44041H83.9493L83.4584 12.5884L68.2559 12.5818Z" fill="#E5E9EE"/>
<path d="M39.5795 12.5771L48.121 0.117553H43.6475L36.9527 9.51036L30.7861 9.48846C30.177 9.48512 29.5705 9.48221 28.9727 9.47934C24.1513 9.45619 19.9012 9.43578 19.452 9.21655C18.7604 8.87894 18.6089 7.97819 18.9397 6.17067C19.3168 4.10994 19.6922 3.51355 20.8286 3.16955C21.1045 3.08605 21.5854 3.06465 21.5854 3.06465L29.2528 3.04995L29.8055 0.00952075H20.5309C17.0625 0.223071 15.8491 1.71566 15.0747 6.65232C14.4531 10.6147 15.0636 11.9719 17.6909 12.4681C18.5219 12.6252 20.5309 12.5885 20.5309 12.5885C25.639 12.5885 39.5795 12.5771 39.5795 12.5771Z" fill="#E5E9EE"/>
</svg>
