<svg width="76" height="95" viewBox="0 0 76 95" fill="none" xmlns="http://www.w3.org/2000/svg">
<g id="delivery" clip-path="url(#clip0_239_565)">
<path id="Vector" fill-rule="evenodd" clip-rule="evenodd" d="M64.6096 49.455L64.8447 55.505L75.3447 56.445L74.2646 66.755L70.5696 68.11C70.3046 64.455 67.7946 60.915 63.0296 60.915C58.1096 60.915 55.4846 64.84 55.5646 68.695H43.8046C43.8046 65.695 42.2646 62.695 39.2596 61.48L54.6297 61.38L56.5947 44.53L70.3297 44.87L72.3946 49.455H64.6096ZM52.3097 59.345L22.3496 59.04C22.3496 59.04 23.4597 48.19 23.9196 43.23C24.1746 40.5 26.0696 38.875 28.8596 38.875C32.9496 38.875 47.5396 39.015 50.2547 39.015C52.9697 39.015 54.5246 40.44 54.1046 44.225C53.4996 49.76 52.3097 59.345 52.3097 59.345ZM28.8596 67.345L21.4346 65.9L21.9996 61.595L33.1497 61.5C31.9916 62.0194 30.9879 62.8299 30.2361 63.8524C29.4843 64.875 29.0101 66.0748 28.8596 67.335V67.345ZM10.1146 44.765L10.9996 42.765L21.2546 41.365L20.8546 45.32L10.1146 44.765ZM20.1396 52.33L0.639648 51.765L1.20965 50.06L20.5596 48.1L20.1396 52.33ZM19.8396 55.26L19.4246 59.32L5.63965 58.765L6.39965 56.765L19.8396 55.26ZM36.2596 62.795C43.6396 62.795 43.8246 74.16 36.7596 74.16C28.4046 74.16 28.9996 62.795 36.2596 62.795ZM36.4996 70.85C39.4396 70.85 39.3596 66.11 36.2846 66.11C33.2096 66.11 32.9996 70.85 36.4996 70.85ZM63.0597 62.795C70.4397 62.795 70.6246 74.16 63.5597 74.16C55.1996 74.16 55.8147 62.795 63.0546 62.795H63.0597ZM63.2946 70.85C66.2346 70.85 66.1546 66.11 63.0797 66.11C60.0047 66.11 59.8046 70.85 63.2896 70.85H63.2946Z" fill="#171F37"/>
</g>
<defs>
<clipPath id="clip0_239_565">
<rect width="75" height="95" fill="white" transform="translate(0.5)"/>
</clipPath>
</defs>
</svg>
