<svg width="75" height="95" viewBox="0 0 75 95" fill="none" xmlns="http://www.w3.org/2000/svg">
<g id="hanger">
<path id="Vector" fill-rule="evenodd" clip-rule="evenodd" d="M66.8053 73.41L15.7803 74.075L24.6353 70.575L59.1003 69.81L37.7353 62.185L7.88532 74.375C7.88532 74.375 4.92032 71.205 7.98532 69.41C16.3453 64.52 29.7903 55.31 29.7903 55.31L33.1453 49.31L35.5803 49.455C35.9577 47.5025 36.7864 45.6652 38.0003 44.09C39.1953 42.47 39.6553 39.47 36.8053 39.47C35.5103 39.47 34.9153 39.815 34.3053 40.68C33.9309 41.2891 33.5969 41.9222 33.3053 42.575L31.0753 41.815C31.0753 41.815 31.3053 39.46 31.7303 38.62C32.5403 37.04 33.9353 35.5 36.9353 35.5C40.6903 35.5 43.0253 37.91 43.0253 41.79C43.0253 43.75 42.0753 45.085 41.1553 46.37C40.3806 47.3619 39.8173 48.502 39.5003 49.72L42.1353 49.875L45.8953 55.375C45.8953 55.375 56.6753 61.935 67.1103 68.375C70.2003 70.245 66.8053 73.41 66.8053 73.41Z" fill="#171F37"/>
</g>
</svg>
