<svg width="19" height="25" viewBox="0 0 19 25" fill="none" xmlns="http://www.w3.org/2000/svg">
<path id="icon" fill-rule="evenodd" clip-rule="evenodd" d="M10.0405 24.3128C12.3077 21.9661 18.4615 14.9261 18.4615 9.5928C18.4615 4.68614 14.251 0.632812 9.17682 0.632812C4.1026 0.632812 0 4.57947 0 9.5928C0 14.9261 6.15386 21.9661 8.42107 24.3128C8.85292 24.7395 9.60865 24.7395 10.0405 24.3128ZM13.6028 9.80569C13.6028 12.1621 11.6693 14.0723 9.28429 14.0723C6.89925 14.0723 4.9658 12.1621 4.9658 9.80569C4.9658 7.44927 6.89925 5.53902 9.28429 5.53902C11.6693 5.53902 13.6028 7.44927 13.6028 9.80569Z" fill="#E5E9EE"/>
</svg>
