<svg width="208" height="65" viewBox="0 0 208 65" fill="none" xmlns="http://www.w3.org/2000/svg">
<path d="M7.85157 64.3351C6.92003 64.3351 6.12156 64.3351 5.05694 64.1979C4.1254 64.0607 3.19386 63.9235 2.26232 63.7864C1.33077 63.6492 0.665387 63.512 0 63.3749L0.266155 59.1225C0.931542 59.1225 1.59693 59.2596 2.52847 59.3968C3.32694 59.534 4.25848 59.534 5.05694 59.6712C5.85541 59.8083 6.65387 59.8083 7.31926 59.8083C7.98465 59.8083 8.38388 59.6712 8.78311 59.534C9.31542 59.3968 9.58158 59.2596 9.71465 58.9853C9.84773 58.711 9.98081 58.2994 9.98081 57.8879C9.98081 57.4764 9.84773 57.202 9.71465 57.0649C9.58158 56.7905 9.31542 56.6534 8.78311 56.5162C8.38388 56.379 7.71849 56.2418 6.92003 56.1047C5.58925 55.8303 4.52463 55.556 3.72617 55.2816C2.79463 55.0073 2.12924 54.5958 1.59693 54.0471C0.931542 53.4984 0.53231 52.9497 0.399232 52.1266C0.266155 51.3036 0 50.4805 0 49.5203C0 47.7371 0.266155 46.3653 0.931542 45.4051C1.59693 44.4449 2.39539 43.759 3.46001 43.3475C4.52463 42.936 5.85541 42.7988 7.45234 42.7988C8.11772 42.7988 8.91619 42.7988 9.84773 42.936C10.7793 43.0732 11.5777 43.0732 12.5093 43.2103C13.3077 43.3475 14.1062 43.4847 14.7716 43.4847L14.5054 47.7371C13.9731 47.7371 13.1747 47.5999 12.3762 47.5999C11.5777 47.4627 10.7793 47.4627 9.98081 47.4627C9.18234 47.4627 8.51696 47.3256 7.85157 47.3256C7.31926 47.3256 6.78695 47.3256 6.38772 47.4627C5.98848 47.5999 5.72233 47.7371 5.58925 48.0114C5.45617 48.2858 5.3231 48.5601 5.3231 48.9716C5.3231 49.3832 5.45617 49.6575 5.58925 49.9319C5.72233 50.2062 6.12156 50.3434 6.52079 50.4805C6.92003 50.6177 7.58541 50.7549 8.38388 51.0292C9.71465 51.3036 10.7793 51.5779 11.5777 51.8523C12.5093 52.1266 13.1747 52.5381 13.707 52.9497C14.2393 53.3612 14.6385 53.9099 14.9047 54.7329C15.1708 55.4188 15.3039 56.379 15.3039 57.4764C15.3039 59.1225 15.0377 60.4942 14.5054 61.4544C13.9731 62.4146 13.0416 63.2377 11.977 63.6492C10.7793 64.0607 9.4485 64.3351 7.85157 64.3351Z" fill="#E5E9EE"/>
<path d="M19.1631 63.9241V43.2109H26.8816C28.7447 43.2109 30.2085 43.4853 31.4062 43.8968C32.6039 44.3083 33.5354 45.1314 34.0678 46.2288C34.7331 47.3261 34.9993 48.8351 34.9993 50.7555C34.9993 52.6759 34.7331 54.1848 34.0678 55.4194C33.4024 56.6539 32.6039 57.3398 31.4062 57.8885C30.2085 58.4372 28.7447 58.5744 26.8816 58.5744H24.4862V63.9241H19.1631ZM24.4862 54.1848H26.7485C27.8131 54.1848 28.6116 53.9105 29.0108 53.3618C29.41 52.8131 29.6762 51.99 29.6762 50.7555C29.6762 49.5209 29.41 48.6979 29.0108 48.2864C28.6116 47.8748 27.8131 47.6005 26.7485 47.6005H24.4862V54.1848Z" fill="#E5E9EE"/>
<path d="M38.5923 63.9241V43.2109H46.71C48.44 43.2109 49.9039 43.4853 51.1016 43.8968C52.2993 44.3083 53.0977 44.9942 53.7631 46.0916C54.2954 47.189 54.6947 48.5607 54.6947 50.4811C54.6947 51.99 54.4285 53.2246 54.0293 54.1848C53.63 55.145 52.8316 55.9681 52.0331 56.5168L54.6947 64.0613H49.2385L47.1092 57.6142H43.9154V63.9241H38.5923ZM43.9154 53.2246H46.8431C47.3754 53.2246 47.9077 53.0874 48.1739 52.8131C48.5731 52.5387 48.7062 52.2644 48.9723 51.8529C49.1054 51.4413 49.2385 50.8927 49.2385 50.344C49.2385 49.3837 48.9723 48.6979 48.5731 48.2864C48.1739 47.8748 47.5085 47.6005 46.71 47.6005H43.9154V53.2246Z" fill="#E5E9EE"/>
<path d="M58.687 63.9241V43.2109H72.7932V47.6005H64.0101V51.3042H71.0632V55.6937H64.0101V59.5346H72.7932V63.9241H58.687Z" fill="#E5E9EE"/>
<path d="M76.2534 63.9241V59.3974L84.2381 48.2864V47.7377H76.2534V43.2109H91.1581V47.8748L83.1734 58.8487V59.3974H91.1581V63.9241H76.2534Z" fill="#E5E9EE"/>
<path d="M94.6182 63.9241V59.3974L102.603 48.2864V47.7377H94.6182V43.2109H109.523V47.8748L101.538 58.8487V59.3974H109.523V63.9241H94.6182Z" fill="#E5E9EE"/>
<path d="M112.451 63.9241L117.241 43.2109H125.758L130.682 63.9241H125.359L124.428 60.4948H118.439L117.641 63.9241H112.451ZM119.238 56.2424H123.895L122.165 47.4633H121.101L119.238 56.2424Z" fill="#E5E9EE"/>
<path d="M136.537 63.9241V47.7377H131.747V43.2109H146.518V47.7377H141.86V63.9241H136.537Z" fill="#E5E9EE"/>
<path d="M158.096 64.3357C156.366 64.3357 154.769 64.0613 153.571 63.6498C152.374 63.2383 151.442 62.4152 150.777 61.3178C150.111 60.2205 149.845 58.7115 149.845 56.9283V43.2109H155.168V57.0655C155.168 58.0257 155.434 58.7115 155.834 59.1231C156.366 59.5346 157.031 59.8089 157.963 59.8089C159.028 59.8089 159.693 59.5346 160.225 59.1231C160.758 58.7115 160.891 58.0257 160.891 57.0655V43.2109H166.214V56.7911C166.214 58.5744 165.948 60.0833 165.282 61.1807C164.617 62.2781 163.685 63.1011 162.488 63.5126C161.29 63.9241 159.826 64.3357 158.096 64.3357Z" fill="#E5E9EE"/>
<path d="M170.872 63.9241V43.2109H178.989C180.719 43.2109 182.183 43.4853 183.381 43.8968C184.579 44.3083 185.377 44.9942 186.042 46.0916C186.708 47.189 186.974 48.5607 186.974 50.4811C186.974 51.99 186.708 53.2246 186.309 54.1848C185.909 55.145 185.111 55.9681 184.312 56.5168L186.974 64.0613H181.518L179.522 57.7513H176.328V64.0613H170.872V63.9241ZM176.195 53.2246H179.122C179.655 53.2246 180.187 53.0874 180.453 52.8131C180.852 52.5387 180.985 52.2644 181.252 51.8529C181.385 51.4413 181.518 50.8927 181.518 50.344C181.518 49.3837 181.252 48.6979 180.852 48.2864C180.453 47.8748 179.788 47.6005 178.989 47.6005H176.195V53.2246Z" fill="#E5E9EE"/>
<path d="M189.769 63.9241L194.559 43.2109H203.076L208 63.9241H202.677L201.746 60.4948H195.757L194.959 63.9241H189.769ZM196.555 56.2424H201.213L199.483 47.4633H198.419L196.555 56.2424Z" fill="#E5E9EE"/>
<path d="M108.325 10.8367L111.785 13.3058L120.967 7.68172L118.838 23.8682L85.9679 0L81.9756 31.6871L99.6749 20.8504L96.2149 18.2441L87.0325 23.8682L89.1618 7.68172L122.032 31.6871L126.024 0L108.325 10.8367Z" fill="#E5E9EE"/>
</svg>
