<svg width="303" height="35" viewBox="0 0 303 35" fill="none" xmlns="http://www.w3.org/2000/svg">
<path d="M29.7317 11.8626L33.6358 14.5655L43.9969 8.40895L41.5943 26.1278L4.5048 0L0 34.6869L19.9713 22.8243L16.0671 19.9713L5.70608 26.1278L8.10864 8.40895L45.1981 34.6869L49.7029 0L29.7317 11.8626Z" fill="#E5E9EE"/>
<path fill-rule="evenodd" clip-rule="evenodd" d="M76.5626 29.1317C75.5114 29.1317 74.6105 29.1317 73.4092 28.9816L70.2558 28.5311C69.2047 28.3809 68.4539 28.2308 67.7031 28.0806L68.0034 23.4257C68.5782 23.4257 69.153 23.5137 69.8625 23.6223H69.8625L69.8638 23.6225C70.0807 23.6557 70.3102 23.6908 70.5562 23.726C71.0066 23.8011 71.4946 23.8386 71.9827 23.8761C72.4707 23.9137 72.9587 23.9512 73.4092 24.0263C74.3102 24.1765 75.2111 24.1765 75.9619 24.1765C76.7127 24.1765 77.1632 24.0263 77.6137 23.8762C78.2143 23.726 78.5146 23.5758 78.6648 23.2755C78.815 22.9752 78.9651 22.5247 78.9651 22.0742C78.9651 21.6238 78.815 21.3234 78.6648 21.1733C78.5146 20.8729 78.2143 20.7228 77.6137 20.5726C77.1632 20.4225 76.4124 20.2723 75.5114 20.1222C74.0098 19.8218 72.8086 19.5215 71.9076 19.2212C70.8565 18.9209 70.1057 18.4704 69.505 17.8698C68.7542 17.2691 68.3038 16.6685 68.1536 15.7675C68.107 15.4876 68.0458 15.2077 67.9837 14.9233L67.9837 14.9232C67.8458 14.2922 67.7031 13.639 67.7031 12.9145C67.7031 10.9624 68.0034 9.4608 68.7542 8.40967C69.505 7.35856 70.406 6.60776 71.6073 6.15728C72.8086 5.7068 74.3102 5.55664 76.1121 5.55664H76.1121C76.8629 5.55664 77.7639 5.55664 78.815 5.7068C79.3405 5.78187 79.8285 5.81941 80.3164 5.85695L80.3166 5.85696C80.8046 5.8945 81.2926 5.93204 81.8182 6.00712L81.8182 6.00713C82.7192 6.15728 83.6201 6.30744 84.3709 6.30744L84.0706 10.9624C83.8006 10.9624 83.4699 10.9321 83.1059 10.8987L83.1057 10.8986C82.6599 10.8577 82.1639 10.8122 81.668 10.8122C80.767 10.6621 79.8661 10.6621 78.9651 10.6621C78.4943 10.6621 78.0645 10.621 77.6542 10.5819H77.6542H77.6542H77.6541H77.6541H77.654H77.6539H77.6539H77.6538H77.6538C77.2792 10.5461 76.9209 10.5119 76.5626 10.5119H76.5625C75.9619 10.5119 75.3613 10.5119 74.9108 10.6621C74.4603 10.8122 74.16 10.9624 74.0098 11.2627C73.8597 11.563 73.7095 11.8634 73.7095 12.3138C73.7095 12.7643 73.8597 13.0646 74.0098 13.365C74.16 13.6653 74.6105 13.8154 75.061 13.9656C75.2476 14.0278 75.4857 14.09 75.7647 14.1629C76.1592 14.2659 76.6354 14.3903 77.1632 14.5662C78.6648 14.8666 79.8661 15.1669 80.767 15.4672C81.8182 15.7675 82.569 16.218 83.1696 16.6685C83.7702 17.119 84.2207 17.7196 84.521 18.6206C84.8214 19.3714 84.9715 20.4225 84.9715 21.6238C84.9715 23.4257 84.6712 24.9273 84.0706 25.9784C83.4699 27.0295 82.4188 27.9305 81.2175 28.381C79.8661 28.8314 78.3645 29.1317 76.5626 29.1317ZM89.3261 28.6813V6.00712H98.0354C100.138 6.00712 101.789 6.30744 103.141 6.75792C104.492 7.2084 105.543 8.10936 106.144 9.31064C106.895 10.5119 107.195 12.1637 107.195 14.2659C107.195 16.3682 106.895 18.0199 106.144 19.3714C105.393 20.7228 104.492 21.4736 103.141 22.0742C101.789 22.6749 100.138 22.825 98.0354 22.825H95.3325V28.6813H89.3261ZM95.3325 18.0199H97.8853C99.0865 18.0199 99.9875 17.7196 100.438 17.119C100.888 16.5183 101.189 15.6174 101.189 14.2659C101.189 12.9145 100.888 12.0135 100.438 11.563C99.9875 11.1126 99.0865 10.8122 97.8853 10.8122H95.3325V18.0199ZM111.249 6.00712V28.6813H117.256V21.7739H120.86L123.262 28.8314H129.419L126.416 20.5726C127.317 19.972 128.218 19.071 128.668 18.0199C129.118 16.9688 129.419 15.6174 129.419 13.9656C129.419 11.8634 128.968 10.3618 128.368 9.16047C127.617 7.95919 126.716 7.2084 125.364 6.75792C124.013 6.30744 122.361 6.00712 120.409 6.00712H111.249ZM120.559 16.9688H117.256V10.8122H120.409C121.31 10.8122 122.061 11.1126 122.511 11.563C122.962 12.0135 123.262 12.7643 123.262 13.8154C123.262 14.4161 123.112 15.0167 122.962 15.4672C122.917 15.5344 122.876 15.5983 122.836 15.6593C122.61 16.0073 122.444 16.2628 122.061 16.5183C121.761 16.8186 121.16 16.9688 120.559 16.9688ZM133.924 28.6813V6.00712H149.841V10.8122H139.93V14.8666H147.889V19.6717H139.93V23.8762H149.841V28.6813H133.924ZM153.745 23.726V28.6813H170.563V23.726H161.553V23.1254L170.563 11.1126V6.00712H153.745V10.9624H162.754V11.563L153.745 23.726ZM174.467 28.6813V23.726L183.476 11.563V10.9624H174.467V6.00712H191.285V11.1126L182.275 23.1254V23.726H191.285V28.6813H174.467ZM199.994 6.00712L194.588 28.6813H200.444L201.345 24.9273H208.103L209.154 28.6813H215.16L209.604 6.00712H199.994ZM207.502 20.2723H202.246L204.349 10.6621H205.55L207.502 20.2723ZM221.767 28.6813V10.9624H216.361V6.00712H233.029V10.9624H227.774V28.6813H221.767ZM240.988 28.3809C242.339 28.8314 244.141 29.1317 246.093 29.1317C248.045 29.1317 249.697 28.6813 251.048 28.2308C252.4 27.7803 253.451 26.8793 254.202 25.6781C254.953 24.4768 255.253 22.825 255.253 20.873V6.00712H249.246V21.1733C249.246 22.2244 249.096 22.9752 248.496 23.4257C247.895 23.8761 247.144 24.1765 245.943 24.1765C244.892 24.1765 244.141 23.8761 243.54 23.4257C243.09 22.9752 242.79 22.2244 242.79 21.1733V6.00712H236.783V21.0231C236.783 22.9752 237.083 24.6269 237.834 25.8282C238.585 27.0295 239.636 27.9305 240.988 28.3809ZM260.508 28.6813V6.00712H269.668C271.62 6.00712 273.272 6.30744 274.623 6.75792C275.975 7.2084 276.876 7.95919 277.627 9.16047C278.377 10.3618 278.678 11.8634 278.678 13.9656C278.678 15.6174 278.377 16.9688 277.927 18.0199C277.477 19.071 276.576 19.972 275.675 20.5726L278.678 28.8314H272.521L270.269 21.9241H266.665V28.8314H260.508V28.6813ZM266.515 16.9688H269.818C270.419 16.9688 271.02 16.8186 271.32 16.5183C271.703 16.2628 271.869 16.0073 272.095 15.6594C272.135 15.5983 272.176 15.5344 272.221 15.4672C272.371 15.0167 272.521 14.4161 272.521 13.8154C272.521 12.7643 272.221 12.0135 271.77 11.563C271.32 11.1126 270.569 10.8122 269.668 10.8122H266.515V16.9688ZM287.237 6.00712L281.831 28.6813H287.687L288.588 24.9273H295.346L296.397 28.6813H302.403L296.847 6.00712H287.237ZM294.745 20.2723H289.489L291.592 10.6621H292.793L294.745 20.2723Z" fill="#E5E9EE"/>
</svg>
