<svg width="27" height="23" viewBox="0 0 27 23" fill="none" xmlns="http://www.w3.org/2000/svg">
<path d="M25.0079 0.182859L1.49587 9.20812C0.208071 9.58417 0.247095 10.8707 1.20319 11.1873L7.09583 13.0478L9.35923 20.0543C9.6324 20.8262 9.86655 21.1033 10.3348 21.123C10.8226 21.123 11.0178 20.9449 11.5251 20.4897C12.1299 19.9157 13.0275 19.0251 14.4714 17.6L20.5982 22.1918C21.7299 22.8252 22.5494 22.4887 22.8226 21.123L26.6664 1.84541C27.0567 0.182859 26.1006 -0.311947 25.0079 0.182859ZM8.03241 12.6322L21.4177 4.10172C22.0811 3.6465 22.2762 4.1611 21.9835 4.49757L10.8617 14.6312L10.2958 19.7178L8.03241 12.6322Z" fill="#E5E9EE"/>
</svg>
